<svg width="39" height="39" viewBox="0 0 39 39" fill="none" xmlns="http://www.w3.org/2000/svg">
<path d="M19.5 0C8.73112 0 0 8.73112 0 19.5C0 30.2689 8.73112 39 19.5 39C30.2689 39 39 30.2689 39 19.5C39 8.73112 30.2689 0 19.5 0ZM16.25 26H13V16.25H16.25V26ZM14.625 14.8021C13.6386 14.8021 12.8375 13.9961 12.8375 13C12.8375 12.0055 13.637 11.1979 14.625 11.1979C15.613 11.1979 16.4125 12.0055 16.4125 13C16.4125 13.9961 15.6114 14.8021 14.625 14.8021ZM27.625 26H24.3783V21.3509C24.3783 18.2943 21.125 18.5526 21.125 21.3509V26H17.875V16.25H21.125V18.0261C22.542 15.4001 27.625 15.2051 27.625 20.5416V26Z" fill="#333333"/>
</svg>
